# xmcd CD database file
#
# Track frame offsets:
#	150
#	12449
#	32631
#	46125
#	74244
#	96430
#	109504
#	130536
#	165642
#	188334
#	208885
#	225779
#
# Disc length: 3242 seconds
#
# Revision: 0
# Processed by: cddbd v1.5.2PL0 Copyright (c) Steve Scherf et al.
# Submitted via: CDex 1.51
#
DISCID=960ca80c
DTITLE=Gary Moore - Still Got The Blues
DYEAR=1900
DGENRE=Blues
TTITLE0=Moving on
TTITLE1=Oh pretty woman
TTITLE2=Walking by myself
TTITLE3=Still got the Blues
TTITLE4=Texas strut
TTITLE5=Too tired
TTITLE6=King of the Blues
TTITLE7=As the years go passing by
TTITLE8=Midnight Blues
TTITLE9=That kind of woman
TTITLE10=All your love
TTITLE11=Stop messin' around
EXTD=
EXTT0=
EXTT1=
EXTT2=
EXTT3=
EXTT4=
EXTT5=
EXTT6=
EXTT7=
EXTT8=
EXTT9=
EXTT10=
EXTT11=
PLAYORDER=
